<?xml version="1.0" standalone="no"?>
<!DOCTYPE svg PUBLIC "-//W3C//DTD SVG 20010904//EN"
 "http://www.w3.org/TR/2001/REC-SVG-20010904/DTD/svg10.dtd">
<svg version="1.0" xmlns="http://www.w3.org/2000/svg"
 width="300.000000pt" height="300.000000pt" viewBox="0 0 300.000000 300.000000"
 preserveAspectRatio="xMidYMid meet">
<metadata>
Created by potrace 1.10, written by Peter Selinger 2001-2011
</metadata>
<g transform="translate(0.000000,300.000000) scale(0.100000,-0.100000)"
fill="#000000" stroke="none">
<path d="M2055 2692 c-3 -3 5 -12 16 -20 18 -12 23 -12 30 -1 4 7 11 10 16 6
4 -5 1 -12 -6 -16 -11 -7 -11 -13 3 -32 17 -24 17 -24 14 16 -3 35 -6 40 -35
46 -18 3 -35 4 -38 1z"/>
<path d="M2040 2649 c0 -16 4 -19 21 -14 18 6 20 5 10 -14 -11 -19 -9 -21 14
-21 32 0 32 10 -3 43 -34 32 -42 34 -42 6z"/>
<path d="M1272 2609 c-27 -26 -30 -36 -28 -75 5 -90 98 -124 162 -61 28 26 34
40 34 73 0 36 -5 45 -34 68 -48 36 -93 35 -134 -5z m86 8 c15 3 24 0 28 -11 3
-9 12 -16 19 -16 21 0 28 -19 15 -35 -10 -12 -10 -18 -1 -29 10 -12 8 -17 -8
-26 -12 -6 -21 -17 -21 -24 0 -10 -13 -14 -45 -14 -31 1 -45 5 -45 15 0 7 -8
13 -19 13 -15 0 -18 7 -17 43 2 46 42 103 61 87 6 -5 21 -7 33 -3z"/>
<path d="M1295 2584 c-22 -22 -28 -74 -9 -74 7 0 15 -8 18 -17 14 -45 101 -4
101 47 0 56 -71 85 -110 44z m77 -11 c23 -21 23 -45 -1 -67 -41 -37 -97 14
-66 60 18 28 41 31 67 7z"/>
<path d="M1325 2566 c-25 -18 -15 -50 16 -54 28 -3 43 16 33 42 -8 21 -30 26
-49 12z"/>
<path d="M2507 2234 c-4 -4 0 -12 9 -18 12 -9 15 -36 15 -144 0 -79 4 -130 10
-127 5 4 8 64 6 135 -1 101 -5 133 -18 145 -8 8 -18 12 -22 9z"/>
<path d="M2098 2095 c-3 -128 3 -174 26 -191 9 -6 16 -17 16 -24 0 -9 6 -8 19
4 13 11 21 14 26 7 3 -6 -1 -14 -9 -17 -9 -3 -16 -14 -16 -23 0 -9 -3 -12 -8
-6 -4 6 -14 12 -22 14 -8 2 -24 6 -35 9 -33 8 -14 -3 60 -36 39 -18 61 -25 51
-17 -10 8 -24 16 -30 18 -14 5 20 44 45 52 11 4 19 11 19 16 0 6 -8 5 -21 -1
-11 -7 -23 -9 -26 -7 -2 3 6 11 18 18 l23 12 -24 11 c-21 9 -5 12 90 17 l115
6 -131 -1 c-108 -1 -128 1 -117 12 7 7 13 20 13 28 0 11 20 14 100 14 79 0
102 3 106 15 3 8 14 17 25 20 44 14 12 20 -101 17 -80 -2 -120 0 -120 7 0 7
43 11 121 11 l122 0 -29 28 c-27 26 -35 28 -122 29 -52 1 -96 4 -100 7 -3 3
43 6 103 6 60 0 106 3 102 6 -3 3 -50 7 -104 8 -131 1 -118 19 17 22 58 1 124
5 147 8 34 6 44 4 51 -11 13 -24 14 -201 1 -224 -6 -12 -24 -19 -52 -22 -32
-3 -29 -4 13 -3 l55 1 0 135 0 135 -192 3 -193 2 0 -140 0 -140 36 0 c24 0 34
-4 31 -12 -4 -14 -41 -12 -70 4 -16 8 -18 23 -15 149 2 76 0 139 -4 139 -4 0
-8 -52 -10 -115z m277 5 c-3 -5 -46 -10 -96 -10 -53 0 -89 4 -89 10 0 6 39 10
96 10 61 0 93 -4 89 -10z m0 -70 c4 -6 -30 -10 -95 -10 -65 0 -99 4 -95 10 3
6 46 10 95 10 49 0 92 -4 95 -10z"/>
<path d="M427 2118 c-7 -4 85 -8 204 -8 196 0 217 -2 232 -18 14 -16 17 -43
17 -174 l0 -156 28 -7 c15 -3 43 -18 62 -32 l35 -24 -35 30 c-19 17 -40 31
-46 31 -20 0 -24 27 -24 175 0 203 18 190 -250 190 -116 0 -217 -3 -223 -7z"/>
<path d="M374 2099 c-17 -19 -19 -38 -19 -181 0 -156 1 -160 24 -179 18 -15
39 -19 100 -19 81 0 98 -5 81 -25 -6 -7 11 -2 36 11 57 29 112 24 161 -13 18
-14 40 -23 50 -21 12 2 3 12 -33 36 l-51 32 -166 0 c-154 0 -167 1 -177 19 -5
11 -10 84 -10 164 0 131 2 147 21 171 24 31 11 35 -17 5z"/>
<path d="M397 2083 c-4 -3 -7 -13 -7 -22 0 -14 28 -16 238 -16 183 0 237 3
236 13 -2 28 -5 32 -18 32 -9 0 -12 -7 -9 -21 4 -16 2 -20 -8 -17 -8 3 -13 13
-13 22 1 9 -4 16 -11 16 -8 0 -11 -8 -8 -21 4 -16 2 -20 -8 -17 -8 3 -13 13
-13 22 1 9 -4 16 -11 16 -7 0 -12 -6 -11 -12 0 -7 -3 -13 -9 -13 -5 0 -9 6 -9
13 1 9 -38 12 -165 12 -92 0 -171 -3 -174 -7z"/>
<path d="M1327 2070 c-26 -5 -54 -22 -85 -52 -26 -25 -54 -48 -62 -51 -10 -4
-8 -6 7 -6 12 -1 45 19 74 44 40 34 61 45 86 45 31 0 33 -2 27 -27 -6 -28 -6
-28 10 -6 9 12 30 24 46 28 36 8 39 20 8 29 -28 7 -61 6 -111 -4z"/>
<path d="M392 1893 l3 -138 176 -5 c126 -4 181 -9 192 -18 9 -8 20 -11 26 -8
5 3 19 -6 30 -21 12 -16 21 -22 21 -14 0 8 8 23 18 34 17 19 16 19 -30 16 -27
-2 -48 -1 -48 3 0 5 15 8 33 8 53 0 57 11 57 152 l0 128 -240 0 -241 0 3 -137z
m436 0 l3 -113 -206 0 -205 0 0 108 c0 60 3 112 7 116 4 3 95 5 202 4 l196 -3
3 -112z"/>
<path d="M442 1953 c2 -24 8 -29 36 -31 48 -5 60 2 55 32 -5 23 -10 26 -50 26
-42 0 -44 -1 -41 -27z"/>
<path d="M613 1973 c37 -2 97 -2 135 0 37 2 6 3 -68 3 -74 0 -105 -1 -67 -3z"/>
<path d="M593 1953 c26 -2 68 -2 95 0 26 2 4 3 -48 3 -52 0 -74 -1 -47 -3z"/>
<path d="M550 1930 c0 -6 47 -10 120 -10 73 0 120 4 120 10 0 6 -47 10 -120
10 -73 0 -120 -4 -120 -10z"/>
<path d="M548 1883 c45 -2 119 -2 165 0 45 1 8 3 -83 3 -91 0 -128 -2 -82 -3z"/>
<path d="M528 1863 c34 -2 88 -2 120 0 31 2 3 3 -63 3 -66 0 -92 -1 -57 -3z"/>
<path d="M600 1840 l-135 -6 148 -2 c93 -1 147 2 147 8 0 6 -6 9 -12 8 -7 -1
-74 -5 -148 -8z"/>
<path d="M533 1813 c37 -2 96 -2 130 0 34 2 4 3 -68 3 -71 0 -99 -1 -62 -3z"/>
<path d="M1142 1999 c-18 -12 -34 -32 -37 -48 -3 -14 -13 -50 -21 -79 -17 -60
-12 -84 33 -151 13 -19 23 -42 23 -53 0 -11 5 -16 10 -13 6 3 10 34 10 69 0
47 4 67 18 79 30 28 63 35 91 20 43 -22 105 -17 139 12 30 25 31 25 71 9 41
-16 60 -47 48 -78 -3 -8 1 -20 9 -26 11 -10 14 -10 15 1 0 8 3 36 5 62 4 43 1
53 -26 83 -36 42 -37 48 -5 42 31 -6 31 -2 0 45 -30 44 -67 49 -109 16 -32
-25 -27 -38 6 -15 28 20 52 20 71 2 12 -12 12 -22 3 -50 -9 -31 -15 -36 -41
-36 -16 0 -43 -9 -60 -20 -33 -22 -86 -26 -133 -9 -28 9 -38 8 -76 -15 -25
-14 -48 -36 -51 -47 l-7 -21 -21 20 c-20 20 -20 22 -2 84 11 40 28 73 46 92
16 15 29 32 29 37 0 12 0 12 -38 -12z"/>
<path d="M1569 1813 c-13 -16 -12 -17 4 -4 26 21 40 2 44 -61 6 -67 -9 -133
-28 -132 -11 1 -13 -10 -10 -43 l3 -45 227 6 c518 13 947 16 960 7 13 -8 9
-57 -23 -343 -20 -183 -40 -350 -43 -370 l-6 -38 -231 -1 c-127 -1 -242 -4
-256 -8 l-25 -7 30 -7 c17 -3 105 -5 198 -3 92 1 167 -1 167 -6 0 -4 -11 -33
-25 -64 -34 -77 -31 -82 7 -9 35 69 41 75 86 75 69 0 85 27 98 165 5 44 8 82
9 85 2 5 9 63 27 215 5 50 12 99 14 110 2 11 6 61 9 110 8 131 11 129 -175
135 l-149 5 -42 40 -43 40 32 -38 c18 -21 32 -41 32 -45 0 -4 -189 -9 -420
-11 -460 -3 -433 -7 -410 55 15 37 24 164 12 164 -5 0 -12 9 -15 20 -6 25 -40
26 -58 3z"/>
<path d="M1052 1748 c-7 -7 -12 -30 -12 -52 -1 -39 -1 -40 -17 -21 -15 20 -15
19 -9 -5 3 -14 6 -34 7 -45 0 -20 1 -20 8 0 6 16 12 9 35 -40 24 -51 26 -65
17 -90 l-10 -30 23 29 24 29 7 -34 c4 -19 18 -47 30 -64 16 -23 20 -37 14 -60
-10 -45 -10 -67 0 -60 5 3 15 31 21 62 l12 56 -31 24 c-26 21 -31 31 -31 68 0
35 -3 43 -17 41 -29 -2 -58 69 -58 141 0 35 0 63 0 63 -1 0 -6 -5 -13 -12z"/>
<path d="M2325 1726 c22 -20 49 -41 60 -47 11 -6 0 6 -24 27 -24 22 -51 43
-60 47 -9 5 2 -7 24 -27z"/>
<path d="M1576 1721 c-4 -5 0 -11 6 -14 10 -3 10 -9 0 -28 l-13 -24 20 23 c11
13 17 30 14 37 -6 17 -19 19 -27 6z"/>
<path d="M1090 1647 c0 -24 17 -47 34 -47 5 0 1 9 -8 19 -18 20 -13 47 6 35 7
-4 8 -2 4 4 -13 21 -36 13 -36 -11z"/>
<path d="M996 1562 c-16 -31 -82 -89 -131 -115 -16 -9 -26 -16 -22 -17 29 -1
141 90 163 131 8 16 12 29 10 29 -3 0 -12 -13 -20 -28z"/>
<path d="M1530 1492 c0 -46 -18 -62 -92 -84 l-45 -13 12 -58 c13 -64 26 -82
68 -92 21 -6 27 -4 27 10 0 9 -4 13 -10 10 -18 -11 -60 42 -60 75 0 25 6 33
33 45 28 12 33 12 38 -3 7 -18 8 -17 24 34 3 8 9 13 14 10 10 -6 21 16 21 42
0 15 24 18 238 22 130 3 339 4 464 3 126 0 226 3 223 7 -3 5 16 10 42 12 27 2
-180 2 -459 -1 -402 -3 -510 -2 -523 9 -13 11 -15 7 -15 -28z"/>
<path d="M672 1292 c-37 -37 -91 -85 -119 -107 -30 -22 -53 -47 -53 -57 0 -29
23 -21 61 20 l34 37 -37 -34 c-21 -19 -38 -30 -38 -24 0 13 86 93 100 93 19 0
25 4 55 32 17 15 33 28 37 28 4 0 5 6 2 14 -4 12 16 28 39 30 4 1 12 8 17 16
5 8 12 11 16 7 4 -3 1 -14 -7 -23 -19 -23 7 -40 76 -49 l54 -6 -72 -69 -72
-69 -10 64 c-5 35 -13 67 -17 70 -12 12 -198 -166 -198 -188 0 -12 -10 -31
-22 -44 -12 -13 -18 -26 -15 -30 11 -10 58 58 61 89 1 4 12 18 26 30 86 78
111 98 119 98 5 0 14 -20 20 -45 18 -72 46 -71 127 4 54 50 69 77 53 97 -6 8
-21 14 -33 14 -21 0 -21 1 2 18 l23 18 -38 -4 c-29 -3 -43 1 -57 17 -33 37
-62 27 -134 -47z"/>
<path d="M99 1304 c-10 -9 -14 -25 -11 -40 11 -56 92 -53 92 4 0 49 -47 70
-81 36z m27 -15 c4 -8 9 -8 17 0 17 17 31 13 17 -4 -10 -12 -10 -18 0 -30 8
-9 9 -15 2 -15 -6 0 -14 5 -18 11 -4 8 -9 8 -17 0 -17 -17 -31 -13 -17 4 10
12 10 18 0 30 -8 9 -9 15 -2 15 6 0 14 -5 18 -11z"/>
<path d="M1152 1258 c2 -16 19 -31 56 -50 39 -20 48 -28 35 -32 -10 -3 11 -3
47 0 63 5 128 27 142 48 13 19 -1 18 -35 -3 -55 -34 -106 -40 -144 -18 -18 10
-35 27 -38 38 -4 11 -18 24 -32 30 -34 13 -35 12 -31 -13z"/>
<path d="M1377 1263 c-4 -3 -35 -10 -69 -14 l-63 -8 63 3 c34 1 68 8 74 14 7
7 10 12 7 12 -3 0 -9 -3 -12 -7z"/>
<path d="M1513 1229 c-7 -13 -23 -114 -36 -224 -21 -170 -22 -202 -11 -215 11
-11 14 -12 14 -1 0 8 9 93 21 190 11 97 19 186 16 198 -2 12 0 24 5 25 6 2 8
14 6 28 l-3 23 -12 -24z"/>
<path d="M1045 1212 c-62 -38 -145 -144 -145 -183 0 -8 9 4 19 27 23 50 68
102 119 138 36 25 41 26 73 12 63 -25 85 -27 30 -1 -64 30 -59 29 -96 7z"/>
<path d="M2105 1223 c-25 -7 -55 -41 -55 -64 0 -9 14 -29 32 -44 27 -23 39
-26 75 -22 85 9 113 77 49 116 -32 20 -60 24 -101 14z m108 -35 c33 -17 17
-54 -30 -67 -38 -11 -77 -4 -98 19 -44 49 55 87 128 48z"/>
<path d="M453 1117 c-12 -18 -24 -42 -26 -54 -2 -13 -6 -26 -10 -29 -17 -17
-5 -23 17 -9 16 11 22 22 19 39 -3 16 2 28 17 39 16 11 19 20 13 31 -7 12 -12
9 -30 -17z"/>
<path d="M441 1007 c-19 -21 -20 -25 -6 -37 13 -11 15 -9 15 10 0 13 8 24 20
27 11 3 17 9 14 14 -8 14 -19 11 -43 -14z"/>
<path d="M2786 852 c-2 -4 4 -13 14 -20 12 -7 21 -8 25 -2 3 6 11 10 17 10 7
0 6 -6 -2 -15 -10 -12 -10 -18 0 -30 8 -9 9 -15 2 -15 -6 0 -14 5 -18 11 -4 8
-9 8 -17 0 -16 -16 -31 -13 -17 4 6 8 9 19 5 25 -11 18 -25 11 -25 -15 0 -39
50 -54 84 -25 14 11 11 45 -7 68 -11 13 -53 17 -61 4z"/>
<path d="M1151 788 c-2 -21 -5 -42 -6 -48 -1 -5 -3 -14 -4 -19 0 -5 -20 -8
-43 -5 -125 13 -208 -36 -208 -125 0 -22 -5 -31 -16 -31 -13 0 -15 6 -10 28 3
15 8 38 11 52 5 21 4 22 -4 5 -5 -11 -15 -34 -21 -52 -13 -36 -40 -49 -67 -34
-15 8 -19 6 -19 -10 0 -17 8 -19 85 -19 66 0 82 3 73 12 -22 22 -14 76 17 110
29 32 32 33 104 32 53 -1 130 -15 266 -50 170 -43 194 -47 224 -36 51 18 71
15 102 -18 17 -18 39 -30 54 -30 l25 0 -33 34 c-37 38 -33 44 37 53 42 5 51 2
64 -15 11 -16 24 -20 60 -19 36 2 52 -3 70 -21 20 -18 36 -22 91 -22 38 0 67
4 67 10 0 6 -23 10 -51 10 -36 0 -63 7 -87 22 -19 12 -57 25 -84 29 -26 4 -60
17 -73 27 -26 20 -50 20 -93 -1 -29 -14 -39 -3 -44 48 -3 39 -2 40 32 43 19 1
42 5 50 8 8 4 80 6 160 5 80 -1 159 3 175 8 21 6 -45 10 -209 10 l-238 1 6
-32 c3 -18 9 -56 13 -86 6 -52 5 -54 -14 -42 -14 9 -35 10 -69 5 -27 -5 -51
-8 -54 -8 -3 1 -25 4 -50 8 -25 4 -49 10 -55 15 -5 4 -26 10 -45 13 -19 3 -67
13 -107 23 l-72 18 -4 66 c-2 42 -4 52 -6 28z"/>
<path d="M2123 783 l-33 -4 0 -119 c0 -104 -2 -119 -17 -123 -10 -3 150 -5
355 -6 240 -1 372 -5 372 -11 0 -7 -415 -10 -1225 -10 -810 0 -1225 3 -1225
10 0 6 7 10 15 10 8 0 15 5 15 10 0 6 25 10 55 10 56 0 62 4 46 29 -6 9 -11
10 -15 2 -4 -6 -20 -11 -35 -11 -70 0 -117 -38 -86 -69 14 -14 138 -16 1225
-15 1162 1 1211 1 1230 19 19 17 19 20 5 34 -12 13 -44 16 -152 18 -75 2 -138
5 -141 8 -3 3 0 17 7 32 13 30 7 25 -26 -19 l-21 -28 -151 -3 -152 -3 2 120
c1 66 -3 121 -7 121 -5 1 -24 0 -41 -2z m19 -53 c7 -21 -4 -160 -13 -155 -12
8 -12 165 0 165 5 0 11 -4 13 -10z"/>
<path d="M635 688 c-13 -20 -13 -24 -1 -34 9 -6 11 -15 6 -24 -5 -9 -5 -19 2
-27 16 -20 29 -15 24 10 -3 12 -7 34 -11 50 l-5 27 105 0 c68 0 104 4 100 10
-3 6 -50 10 -105 10 -91 0 -100 -2 -115 -22z"/>
<path d="M985 630 c10 -16 85 -50 110 -49 13 0 7 5 -16 14 -20 7 -51 20 -69
30 -18 9 -29 12 -25 5z"/>
<path d="M502 591 l-1 -41 55 0 c30 0 54 -4 54 -10 0 -5 26 -10 57 -10 l56 0
-23 25 c-23 25 -60 34 -60 15 0 -5 -7 -10 -15 -10 -8 0 -15 4 -15 8 0 4 -16 6
-35 4 -30 -4 -37 0 -53 28 l-20 31 0 -40z"/>
<path d="M1145 571 c31 -9 102 -14 94 -7 -2 2 -31 6 -64 9 -39 4 -50 3 -30 -2z"/>
<path d="M1300 550 c30 -5 75 -8 100 -8 41 1 40 2 -15 8 -33 4 -78 8 -100 8
-34 -1 -32 -2 15 -8z"/>
<path d="M1788 553 c-38 -2 -68 -8 -68 -13 0 -12 24 -12 109 -4 39 5 57 10 49
15 -7 5 -15 8 -18 7 -3 -1 -35 -3 -72 -5z"/>
</g>
</svg>
